PathFileType	4	(X/Y/Z)	s01c0403.trc
DataRate	CameraRate	NumFrames	NumMarkers	Units	OrigDataRate	OrigDataStartFrame	OrigNumFrames
200	200	5	47	mm	200	0	2000
Frame#	Time	racr			lacr			c7			jug			rlel			rdr			llel			ldr			lic			ric			lasi			rasi			rpsi			lpsi			rgt			lgt			rth1			rth2			rth3			rth4			rlfc			rsh1			rsh2			rsh3			rsh4			rlmal			rmmal			rcal			rtoe			rmt5			lth1			lth2			lth4			lth3			llfc			lsh1			lsh2			lsh3			lsh4			llmal			lmmal			lcal			ltoe			lmt5			SBIKE			LBIKE			RBIKE			
		X1	Y1	Z1	X2	Y2	Z2	X3	Y3	Z3	X4	Y4	Z4	X5	Y5	Z5	X6	Y6	Z6	X7	Y7	Z7	X8	Y8	Z8	X9	Y9	Z9	X10	Y10	Z10	X11	Y11	Z11	X12	Y12	Z12	X13	Y13	Z13	X14	Y14	Z14	X15	Y15	Z15	X16	Y16	Z16	X17	Y17	Z17	X18	Y18	Z18	X19	Y19	Z19	X20	Y20	Z20	X21	Y21	Z21	X22	Y22	Z22	X23	Y23	Z23	X24	Y24	Z24	X25	Y25	Z25	X26	Y26	Z26	X27	Y27	Z27	X28	Y28	Z28	X29	Y29	Z29	X30	Y30	Z30	X31	Y31	Z31	X32	Y32	Z32	X33	Y33	Z33	X34	Y34	Z34	X35	Y35	Z35	X36	Y36	Z36	X37	Y37	Z37	X38	Y38	Z38	X39	Y39	Z39	X40	Y40	Z40	X41	Y41	Z41	X42	Y42	Z42	X43	Y43	Z43	X44	Y44	Z44	X45	Y45	Z45	X46	Y46	Z46	X47	Y47	Z47	
0	0.0000	445.987813	1362.537097	-116.806413	451.556268	1362.324446	-431.131978	0.000000	0.000000	-0.000000	0.000000	0.000000	-0.000000	542.287377	1103.068874	-35.640521	706.842172	896.295046	-76.945779	532.335318	1099.432293	-517.704498	699.943249	902.201413	-462.276928	106.434098	1158.484952	-446.655751	80.044765	1138.209240	-111.642685	86.976891	1105.740457	-420.465014	109.434703	1090.531935	-140.214643	-52.700408	1168.423559	-213.747283	-60.017935	1175.943338	-316.805733	25.061412	1012.601219	-85.899198	37.346383	1034.971979	-475.965992	91.416249	894.105799	-73.564347	140.060688	824.920144	-79.707837	185.170319	749.060931	-94.829674	185.443336	855.387477	-91.251771	214.736816	643.718310	-116.448816	149.887164	544.649681	-79.626482	123.546435	463.963432	-78.106242	87.307570	382.305646	-86.922278	169.214441	446.164856	-113.656079	36.456272	260.571532	-102.803483	0.000000	0.000000	-0.000000	-10.438486	228.167411	-157.444438	257.433412	188.708387	-144.395409	151.516024	166.647028	-74.635866	142.776182	974.546893	-479.706714	231.517114	975.695080	-487.359738	232.989753	1029.605280	-476.834653	316.908655	968.042281	-477.033871	425.095817	909.941728	-457.158307	337.245910	836.132469	-474.717359	293.400365	762.732104	-461.626355	248.857348	691.979199	-441.061846	343.913099	737.710660	-435.375167	185.299509	583.833955	-415.049082	215.367578	592.160656	-332.937575	130.858890	553.961570	-369.895575	401.627704	501.444142	-387.803672	292.479849	493.096204	-449.557389	-232.064090	890.087401	-257.711165	-24.440064	80.352791	-458.226785	-24.596834	80.463025	-57.927802	
1	0.0050	445.962559	1362.481637	-116.785092	451.546538	1362.294232	-431.151325	0.000000	0.000000	-0.000000	0.000000	0.000000	-0.000000	542.256438	1103.016626	-35.589629	706.806640	896.293015	-76.928362	532.305904	1099.420723	-517.688921	699.939546	902.184944	-462.231071	106.404001	1158.529079	-446.713439	80.028740	1138.195338	-111.615715	86.975638	1105.738963	-420.480904	109.425396	1090.570003	-140.165346	-52.654090	1168.419855	-213.764380	-60.002536	1175.946624	-316.806722	25.071975	1012.599213	-85.911130	37.334032	1034.965231	-475.956741	91.495912	894.127043	-73.589509	140.156670	824.941316	-79.746835	185.315043	749.113351	-94.881765	185.541931	855.434055	-91.308339	214.908159	643.787236	-116.491689	149.962095	544.767276	-79.654124	123.600035	464.156548	-78.112530	87.287556	382.450529	-86.952532	169.236335	446.247894	-113.700805	36.288489	260.835149	-102.828434	0.000000	0.000000	-0.000000	-10.610664	228.468830	-157.467156	257.227578	188.736867	-144.399490	151.272861	166.804601	-74.637946	142.794622	974.500382	-479.726076	231.529005	975.676887	-487.328350	233.139068	1029.746905	-476.985499	316.955129	967.994735	-476.995449	425.094775	909.874448	-457.109221	337.289030	836.037654	-474.688294	293.491222	762.666407	-461.584055	248.987256	691.835652	-441.054591	344.015507	737.634957	-435.326033	185.489346	583.685332	-415.055763	215.591458	592.001580	-332.888423	131.064677	553.733071	-369.874684	401.876801	501.395768	-387.826471	292.726405	492.950438	-449.539692	-232.054665	890.092281	-257.711489	-24.444593	80.313081	-458.286558	-24.587580	80.459511	-57.920252	
2	0.0100	445.943177	1362.453692	-116.758600	451.569634	1362.223138	-431.041493	0.000000	0.000000	-0.000000	0.000000	0.000000	-0.000000	542.235439	1102.971381	-35.546736	706.809334	896.293470	-76.925547	532.302708	1099.386633	-517.679511	699.930511	902.188305	-462.198705	106.347267	1158.526398	-446.687356	80.012415	1138.190276	-111.596140	86.976578	1105.732202	-420.473017	109.432613	1090.575001	-140.178911	-52.673565	1168.425200	-213.754307	-60.017910	1175.955719	-316.787535	25.088229	1012.595434	-85.897754	37.345506	1034.956296	-475.972079	91.564089	894.139930	-73.620522	140.241218	824.957284	-79.794035	185.468270	749.171502	-94.908888	185.631605	855.478735	-91.327250	215.083018	643.872186	-116.537572	150.094904	544.894996	-79.682411	123.643889	464.270796	-78.132762	87.246010	382.626162	-86.974471	169.238459	446.343417	-113.722796	36.124581	261.080768	-102.820621	0.000000	0.000000	-0.000000	-10.805622	228.753006	-157.450028	257.029502	188.775000	-144.389735	151.011884	166.966358	-74.618939	142.803285	974.461705	-479.698535	231.537076	975.636777	-487.303773	233.078784	1029.564594	-476.787388	316.960972	967.937003	-476.930839	425.113022	909.851889	-457.061951	337.314044	835.958191	-474.655849	293.564685	762.570848	-461.556215	249.116979	691.697366	-441.046160	344.118925	737.558273	-435.302984	184.817435	583.607532	-415.864920	215.716206	591.818778	-332.875843	130.259123	553.748517	-371.011282	402.138994	501.340494	-387.836703	292.962189	492.806487	-449.549254	-232.051099	890.082999	-257.699169	-24.439265	80.299065	-458.289821	-24.597034	80.464590	-57.930059	
3	0.0150	445.948872	1362.410096	-116.696435	450.932447	1361.545072	-430.974003	0.000000	0.000000	-0.000000	0.000000	0.000000	-0.000000	541.989366	1102.947871	-35.401104	706.804899	896.281561	-76.907092	532.498439	1099.374329	-517.370330	700.662379	902.588537	-461.761810	106.342649	1158.554156	-446.746214	80.081045	1138.414844	-111.370519	86.972714	1105.744041	-420.473219	109.676972	1090.624323	-140.165497	-52.577095	1168.261046	-213.687253	-58.367339	1173.777421	-318.839457	25.321222	1012.445359	-85.705032	37.282473	1034.889697	-475.966692	91.654625	894.175471	-73.637749	139.592256	825.684358	-79.478638	185.616124	749.219210	-94.930353	185.921217	855.878847	-91.132854	215.251194	643.967563	-116.571629	150.202069	545.016507	-79.702630	123.692245	464.406744	-78.175032	87.196797	382.805295	-86.981418	169.245508	446.445897	-113.745020	35.868625	261.453284	-102.828272	0.000000	0.000000	-0.000000	-10.990838	229.008733	-157.454282	256.811141	188.844928	-144.366048	150.783880	167.087487	-74.613646	142.913319	974.396701	-479.685865	231.544920	975.597156	-487.279164	233.178421	1029.373899	-476.598000	316.954007	967.898119	-476.905783	425.207426	909.954780	-456.859091	337.352768	835.887553	-474.613323	296.093401	762.288436	-462.949015	249.395273	691.618461	-441.031955	344.212039	737.485919	-435.293066	185.740539	583.417639	-415.233860	214.285721	592.179141	-331.290471	130.360193	553.724071	-371.021005	402.402473	501.252384	-387.856452	293.222451	492.662818	-449.573919	-231.978240	890.030245	-257.931198	-24.432805	80.326465	-458.274336	-24.584072	80.457868	-57.925310	
4	0.0200	446.004778	1362.305632	-116.744682	450.710817	1361.850097	-430.951430	0.000000	0.000000	-0.000000	0.000000	0.000000	-0.000000	541.962125	1102.929803	-35.107415	707.324436	896.455331	-76.893978	532.425481	1099.358762	-517.607002	700.463676	902.368919	-461.494895	106.432044	1157.498951	-447.030414	80.058083	1138.382838	-111.334680	86.725527	1105.679644	-420.403505	109.681633	1090.526023	-140.143463	-52.588363	1168.210276	-213.673380	-56.785224	1171.689423	-320.805299	25.319121	1012.319869	-85.545577	36.475885	1035.171631	-476.457181	91.712670	894.192744	-73.644096	139.677118	825.691329	-79.509152	185.740748	749.270630	-94.933761	186.033051	855.926498	-91.173012	215.428692	644.058982	-116.643160	150.289317	545.152189	-79.823880	123.733299	464.502744	-78.182275	87.189091	382.960275	-86.989693	169.298297	446.549488	-113.804147	35.631358	261.695282	-102.864083	0.000000	0.000000	-0.000000	-11.192919	229.197655	-157.495508	256.623389	188.876031	-144.395874	150.535015	167.181073	-74.665911	143.017169	974.334852	-479.675211	231.550032	975.548523	-487.258798	236.540477	1029.297399	-474.575478	316.923518	967.667063	-476.603072	424.717113	910.029731	-456.961325	337.801596	835.816975	-474.628288	299.513378	761.949133	-464.827843	249.344052	691.622737	-441.095491	344.410343	737.351670	-435.136858	186.627071	583.232921	-414.629734	214.569971	592.003648	-331.458291	130.765588	553.300475	-371.105257	402.499114	501.042035	-387.810927	293.771259	492.642913	-449.220199	-232.002463	889.985288	-257.922115	-24.229924	80.250448	-458.556723	-24.614353	80.354043	-57.867541	
